<?xml version="1.0" encoding="utf-8"?>
<svg version="1.1" id="svg" xmlns:inkscape="http://www.inkscape.org/namespaces/inkscape" xmlns:sodipodi="http://sodipodi.sourceforge.net/DTD/sodipodi-0.dtd" xmlns="http://www.w3.org/2000/svg" viewBox="0 0 512 512" >
<style type="text/css">
	.st0{fill:#0055A4;}
	.st1{fill:#FFFFFF;}
</style>
<g id="main">
	<path id="blue" class="st0" d="M512,256c0,141.4-114.6,256-256,256S0,397.4,0,256S114.6,0,256,0S512,114.6,512,256z"/>
    <path id="blue" class="st0" d="M512,256c0,141.4-114.6,256-256,256S0,397.4,0,256S114.6,0,256,0S512,114.6,512,256z"/>
	<path id="square" class="st1" d="M141.6,418.8l-6,28.7l21.7-19.8l-3.3-12.3L141.6,418.8z M47.7,360l28.7-6l3.3-12.3l-12.3-3.3
		L47.7,360z M59.4,292.7l-11.1-6.5l-24.7,15.9l29.3,1.5L59.4,292.7z M494.4,239.4l-28-9l-9,9l9,8.9L494.4,239.4z M52.3,240.3l-9-8.9
		l-28,8.9l28,9L52.3,240.3z M191.9,442.1l1.5,29.3l15.9-24.7l-6.5-11.1L191.9,442.1z M85.9,409.5l26.1-13.4v-12.8H99.3L85.9,409.5z
		 M398.4,382.8v12.8l26.1,13.4l-13.4-26.1L398.4,382.8L398.4,382.8z M430.5,340.7l3.3,12.3l28.7,6.1l-19.8-21.8L430.5,340.7z
		 M246.3,451.4l8.9,44.1l9-44.1l-9-9L246.3,451.4z M450.6,291.8l6.5,11.1l29.3-1.5l-24.7-16L450.6,291.8z M301.5,446.4l15.9,24.7
		l1.5-29.3l-11-6.5L301.5,446.4z M356.6,415l-3.3,12.3l21.6,19.8l-6-28.7L356.6,415z M293.5,54.3c0,0.1,0,0.2,0,0.2
		c80.8,17.6,141.2,89.5,141.2,175.6c0,99.3-80.4,179.7-179.7,179.7c-99.2,0-179.7-80.5-179.7-179.7c0-86,60.4-157.9,141.2-175.5
		c0-0.1,0-0.2,0-0.2C129.9,72.1,64.9,148.7,64.9,240.5c0,105,85.1,190.1,190.1,190.1s190-85.1,190-190.1
		C445,148.7,379.9,72.1,293.5,54.3z M225.8,69.2c0.1-0.2,0.1-0.5,0.2-0.7C147,82.1,87.1,150.9,87.1,233.7
		c0,92.7,75.1,167.8,167.8,167.8s167.8-75.1,167.8-167.8c0-82.7-60-151.4-138.9-165.3c0.1,0.2,0.1,0.5,0.2,0.7
		c76,13.6,133.4,80.1,133.4,159.8c0,89.8-72.8,162.4-162.4,162.4c-89.8,0-162.4-72.7-162.4-162.4C92.4,149.3,149.9,82.9,225.8,69.2z
		"/>
	<path id="right" sodipodi:nodetypes="cccssscc" class="st1" d="M245,266.3l32.7-15.4l0.5,1c0,2.8-0.8,13.1-1.4,19.5
		c-1.5,14-3.6,25.9-6.7,36.4c-2.1,7.3-11,30-11.9,30.9c-0.1,0.1-0.3,1.1-0.3,0.7L245,266.3z"/>
	<path id="left" sodipodi:nodetypes="sscccs" class="st1" d="M220.6,337.2c-8.3-21-12.7-46.8-11.9-69.5c0.2-6.5,1.6-17.3,2.1-18.9
		l34.2,17.5l-22.9,73.6C222,340,221.1,338.5,220.6,337.2z"/>
	<path id="man" inkscape:connector-curvature="0" sodipodi:nodetypes="ccccccsccsccccccsccsccccccccscc" d="
		M111.4,282.6c15.3-5.1,41.5-16.2,60.7-24.3c19.3-8.1,30.3-18.2,30.3-18.2h8.1c0,0-3-11.1-4.1-19.3c-0.9-8.1-4.1-15.3-5-24.4
		c0,0-16.2,0-26.3-0.9s-19.3-14.1-5.1-25.3c3.3-2.6,9.5-6.1,17.4-10.2c1.9-3.7,4-9.2,4-16.1c0-13.1-4.1-28.3,13.1-41.5
		c17.2-13.1,45.6-27.3,59.7-9.1c11.9,15.2,14.5,28.1,20.9,34.3c3.2-0.4,6.5-0.8,9.4-0.9c44.4-3,49.8,14.3,19,34.6l-17.1,3.9
		c0,0-8.1,17.2-8.1,29.5c0,12.1-0.9,24.4-10.1,37.5c-5.6,8.1-2.9,15.2-0.5,18.7c0,0-18.1,15.4-32.7,15.4
		c-14.6,0-34.2-17.5-34.2-17.5c-7.7,49.7,11.3,91.1,11.3,91.1l22.9-73.6l12.9,73.1c0,0,0.9,0.3,10.1-26.3
		c8.1-23.6,9.5-55.5,9.7-62.2c1.3,1.5,29.7,21.6,60,38.9c25.2,14.3,39,23,43.1,35.3c-30.5,34.9-75.3,57-125.3,57
		c-66.7,0-124-39.2-150.7-95.8C107,284.7,109.2,283.4,111.4,282.6L111.4,282.6z"/>
</g>
</svg>
