<?xml version="1.0" encoding="utf-8"?>
<!-- Generator: Adobe Illustrator 22.0.1, SVG Export Plug-In . SVG Version: 6.00 Build 0)  -->
<svg version="1.1" xmlns="http://www.w3.org/2000/svg" xmlns:xlink="http://www.w3.org/1999/xlink" x="0px" y="0px"
	 viewBox="0 0 1536 1536" style="enable-background:new 0 0 1536 1536;" xml:space="preserve">
<style type="text/css">
	.st0{fill-rule:evenodd;clip-rule:evenodd;fill:#32174D;}
	.st1{fill:#F0E68C;}
	.st2{fill-rule:evenodd;clip-rule:evenodd;fill:#F0E68C;}
</style>
<g id="框架_1_">
	<g id="外环">
		<g>
			<path class="st0" d="M768,1524c-102.1,0-201.1-20-294.3-59.4c-90-38.1-170.9-92.6-240.3-162c-69.4-69.4-123.9-150.3-162-240.3
				C32,969.1,12,870.1,12,768s20-201.1,59.4-294.3c38.1-90,92.6-170.9,162-240.3c69.4-69.4,150.3-123.9,240.3-162
				C566.9,32,665.9,12,768,12s201.1,20,294.3,59.4c90,38.1,170.9,92.6,240.3,162c69.4,69.4,123.9,150.3,162,240.3
				C1504,566.9,1524,665.9,1524,768s-20,201.1-59.4,294.3c-38.1,90-92.6,170.9-162,240.3c-69.4,69.4-150.3,123.9-240.3,162
				C969.1,1504,870.1,1524,768,1524z"/>
		</g>
		<g>
			<path class="st1" d="M768,24c100.5,0,197.9,19.7,289.6,58.5c44.1,18.6,86.6,41.7,126.4,68.6c39.4,26.6,76.5,57.2,110.1,90.9
				c33.7,33.7,64.2,70.7,90.9,110.1c26.9,39.8,49.9,82.3,68.6,126.4c38.8,91.7,58.5,189.1,58.5,289.6s-19.7,197.9-58.5,289.6
				c-18.6,44.1-41.7,86.6-68.6,126.4c-26.6,39.4-57.2,76.5-90.9,110.1c-33.7,33.7-70.7,64.2-110.1,90.9
				c-39.8,26.9-82.3,49.9-126.4,68.6c-91.7,38.8-189.1,58.5-289.6,58.5s-197.9-19.7-289.6-58.5c-44.1-18.6-86.6-41.7-126.4-68.6
				c-39.4-26.6-76.5-57.2-110.1-90.9c-33.7-33.7-64.2-70.7-90.9-110.1c-26.9-39.8-49.9-82.3-68.6-126.4C43.7,965.9,24,868.5,24,768
				s19.7-197.9,58.5-289.6c18.6-44.1,41.7-86.6,68.6-126.4c26.6-39.4,57.2-76.5,90.9-110.1c33.7-33.7,70.7-64.2,110.1-90.9
				c39.8-26.9,82.3-49.9,126.4-68.6C570.1,43.7,667.5,24,768,24 M768,0C343.8,0,0,343.8,0,768s343.8,768,768,768s768-343.8,768-768
				S1192.2,0,768,0L768,0z"/>
		</g>
	</g>
	<g id="内环">
		<g>
			<path class="st1" d="M768,128c86.4,0,170.2,16.9,249.1,50.3c37.9,16,74.5,35.9,108.7,59c33.9,22.9,65.8,49.2,94.8,78.2
				c29,29,55.3,60.9,78.2,94.8c23.1,34.2,43,70.8,59,108.7c33.3,78.9,50.3,162.7,50.3,249.1s-16.9,170.2-50.3,249.1
				c-16,37.9-35.9,74.5-59,108.7c-22.9,33.9-49.2,65.8-78.2,94.8c-29,29-60.9,55.3-94.8,78.2c-34.2,23.1-70.8,43-108.7,59
				c-78.9,33.3-162.7,50.3-249.1,50.3s-170.2-16.9-249.1-50.3c-37.9-16-74.5-35.9-108.7-59c-33.9-22.9-65.8-49.2-94.8-78.2
				c-29-29-55.3-60.9-78.2-94.8c-23.1-34.2-43-70.8-59-108.7C144.9,938.2,128,854.4,128,768s16.9-170.2,50.3-249.1
				c16-37.9,35.9-74.5,59-108.7c22.9-33.9,49.2-65.8,78.2-94.8c29-29,60.9-55.3,94.8-78.2c34.2-23.1,70.8-43,108.7-59
				C597.8,144.9,681.6,128,768,128 M768,48C370.4,48,48,370.4,48,768s322.4,720,720,720s720-322.4,720-720S1165.6,48,768,48L768,48z
				"/>
		</g>
	</g>
</g>
<g id="主体_1_">
	<g id="大D_1_">
		<g id="大D-遮盖">
			<g>
				<path class="st2" d="M867.8,948c-55.4,115.2-139.4,164.5-246.2,164.5h-42c16.7-106.5,35.9-215,55.2-324.6l7.6-43
					c19.3-109.6,38.3-217.1,58.9-322.6h45.1c105.5,0,172,48.1,185.9,165.6h175.9c-34.6-132.1-150.1-205.6-322-205.6H428.8l-6.7,37.9
					l96.2,6.1c-16.5,105.5-35.5,213-54.1,318.5l-7.8,44c-19,107.5-37.9,215-58.4,319.5l-98.4,6.1l-6.7,37.9h349.2
					c172.8,0,316-73.3,399.5-204.5H867.8z"/>
			</g>
		</g>
	</g>
	<g id="DOKISTAR_1_">
		<g id="DOKI_STAR-形状">
			<g>
				<path class="st2" d="M894.7,649h-50.4l-0.9,4.4l13.6,1c-2.3,13.2-5.1,26.5-8,39.9l-0.9,4.2c-3,14.3-5.9,27.6-9,40.6l-14.1,1.2
					l-0.9,4.4h47.6c38.7,0,66.1-18.2,72.4-48.1C950.3,667,932.2,649,894.7,649z M917.3,696.7c-5.7,27.1-22.2,43.1-44.9,43.1h-6.8
					c2.5-13.4,5.4-27,8.4-41.3l0.9-4.2c2.9-13.8,5.8-27.3,8.9-40.4h7.4C913.2,653.9,923.2,668.7,917.3,696.7z M1030.1,646.4
					c-28.7,0-58.2,17.3-65.2,50.3c-7.1,33.4,15,50.4,43.9,50.4c29,0,58-17.2,65-50.4C1080.8,663.6,1059,646.4,1030.1,646.4z
					 M1046.8,696.7c-5.6,26.4-18.2,45.6-37,45.6c-18.9,0-23.3-19.2-17.7-45.6c5.5-26.1,18.1-45.4,37-45.4
					C1047.8,651.3,1052.3,670.6,1046.8,696.7z M1136.7,740.3l-11.9-1.2c2.1-10.6,4.3-20.9,6.3-30.5l13.4-11.1l17.4,41.9l-10.9,0.9
					l-0.9,4.4h49.9l0.9-4.4l-10.6-0.9l-25.7-58.6l30.8-25.6l16.2-1.8l0.9-4.4h-39.9l-0.9,4.4l15,1.8l-54.2,47l1.7-8.1
					c2.8-13.3,5.6-26.6,8.5-39.6l14.1-1.2l0.9-4.4h-53.1l-0.9,4.4l13.6,1c-2.3,13.2-5.1,26.4-7.9,39.7l-1.2,5.6
					c-2.8,13.3-5.6,26.5-8.8,39.4l-14.1,1.2l-0.9,4.4h51.5L1136.7,740.3z M1267.8,648.4l-1,4.7l14.1,0.9
					c-2.5,13.2-5.3,26.6-8.1,39.7l-1.2,5.5c-2.8,13.4-5.7,26.9-8.7,39.8l-14.5,0.9l-1,4.7h55.9l1-4.7l-14.1-0.9
					c2.5-13.2,5.3-26.5,8.1-39.9l1.1-5.4c2.8-13.4,5.6-26.6,8.7-39.7l14.5-0.9l1-4.7H1267.8z M841.9,809.6
					c-3.3,15.4,5.8,23.9,24.8,31.6l6.8,2.7c11.3,4.5,14.8,9.1,13,17.8c-2.1,10-11.8,16-27,16c-5.8,0-10.3-0.5-14.6-1.9l-3.4-22.3
					h-8.9l-5.7,22c8.2,5,21.6,7.7,34.2,7.7c28.9,0,46.9-11.6,50.5-28.7c3.1-14.5-3.8-22.1-24.8-30.7l-7.5-3.1
					c-9.9-4.1-14.7-8.8-12.9-17.7c2-9.6,11.8-15.2,25.2-15.2c3.8,0,6.8,0.4,9.7,1.5l3.3,21.2h8.9l5.8-20.9
					c-7.5-4.6-17.7-7.3-29.6-7.3C864.4,782.4,845.5,792.3,841.9,809.6z M937.4,812.4h9.1l12.4-22.4h21.2
					c-2.5,13.2-5.3,26.6-8.2,40.1l-1.2,5.6c-2.8,13.3-5.6,26.5-8.6,39.3l-15.8,1.3l-0.9,4.4h57.8l0.9-4.4l-15.4-1.3
					c2.5-13.1,5.3-26.4,8-39.4l1.2-5.5c2.9-13.6,5.7-26.9,8.8-40.1h21.4l3.1,22.4h8.9l5.2-27.4H943.8L937.4,812.4z M1127.2,775.5
					h-0.3l-21.7,43.1h-44.9l0,0.3l31.7,26.4l-21.8,43.3h0.3l41.4-26.6l32,26.6h0.3l-6.6-43.3l41-26.4l0-0.3h-44.9L1127.2,775.5z
					 M1163.1,823.7l-31,19.7l5.2,32.9h-0.1l-24.3-20.4l-31.4,20.4h-0.3l16.8-32.9l-24-19.7l0-0.3h33.9l16.2-32.4h0.3l4.8,32.4h33.9
					L1163.1,823.7z M1267.1,785h-55.3l-0.9,4.4l13.6,1c-2.3,13.2-5.1,26.4-7.9,39.7l-1.2,5.6c-2.8,13.3-5.6,26.5-8.8,39.4l-14.1,1.2
					l-0.9,4.4h54.2l0.9-4.4l-13.9-1.2c2.3-13.1,5.1-26.2,7.9-39.7h7.5c11.8,0,14.4,5.1,14.4,15.6l0.7,17.7
					c-0.7,10.4,6.4,13.8,20.6,13.8c7.7,0,12.1-0.6,18.7-1.9l0.9-4.4l-13.5-0.6l-0.6-21.1c0.1-12.7-3.7-19.7-23.3-22
					c24.8-3.1,35.5-12.9,37.7-23.4C1307,793.8,1294.2,785,1267.1,785z M1279.2,809.4c-2.5,11.6-11.1,21.2-28.3,21.2h-9.1
					c3.1-14.7,5.9-27.9,9.1-40.8h8.8C1275.2,789.9,1281.8,796.8,1279.2,809.4z"/>
			</g>
		</g>
		<g id="上下线">
			<g>
				<path class="st2" d="M813,618v11.7h540V618H813z M813,918h540v-11.7H813V918z"/>
			</g>
		</g>
	</g>
</g>
</svg>
